HIERARCHY
ROOT root
{
	OFFSET 0.000000 0.000000 0.000000
	CHANNELS 6 Xposition Yposition Zposition Zrotation Yrotation Xrotation
	JOINT lhip
	{
		OFFSET 0.058581 -0.082280 -0.017664
		CHANNELS 3 Zrotation Yrotation Xrotation
		JOINT lknee
		{
			OFFSET 0.043451 -0.386469 0.008037
			CHANNELS 3 Zrotation Yrotation Xrotation
			JOINT lankle
			{
				OFFSET -0.014790 -0.426874 -0.037428
				CHANNELS 3 Zrotation Yrotation Xrotation
				JOINT ltoe
				{
					OFFSET 0.041054 -0.060286 0.122042
					CHANNELS 3 Zrotation Yrotation Xrotation
					End Site
					{
						OFFSET 0.000000 0.000000 0.000000
					}
				}
			}
		}
	}
	JOINT rhip
	{
		OFFSET -0.060310 -0.090513 -0.013543
		CHANNELS 3 Zrotation Yrotation Xrotation
		JOINT rknee
		{
			OFFSET -0.043257 -0.383688 -0.004843
			CHANNELS 3 Zrotation Yrotation Xrotation
			JOINT rankle
			{
				OFFSET 0.019056 -0.420046 -0.034562
				CHANNELS 3 Zrotation Yrotation Xrotation
				JOINT rtoe
				{
					OFFSET -0.034840 -0.062106 0.130323
					CHANNELS 3 Zrotation Yrotation Xrotation
					End Site
					{
						OFFSET 0.000000 0.000000 0.000000
					}
				}
			}
		}
	}
	JOINT lowerback
	{
		OFFSET 0.004439 0.124404 -0.038385
		CHANNELS 3 Zrotation Yrotation Xrotation
		JOINT upperback
		{
			OFFSET 0.004488 0.137956 0.026820
			CHANNELS 3 Zrotation Yrotation Xrotation
			JOINT chest
			{
				OFFSET -0.002265 0.056032 0.002855
				CHANNELS 3 Zrotation Yrotation Xrotation
				JOINT lowerneck
				{
					OFFSET -0.013390 0.211636 -0.033468
					CHANNELS 3 Zrotation Yrotation Xrotation
					JOINT upperneck
					{
						OFFSET 0.010113 0.088937 0.050410
						CHANNELS 3 Zrotation Yrotation Xrotation
						End Site
						{
							OFFSET 0.000000 0.000000 0.000000
						}
					}
				}
				JOINT lclavicle
				{
					OFFSET 0.071702 0.114000 -0.018898
					CHANNELS 3 Zrotation Yrotation Xrotation
					JOINT lshoulder
					{
						OFFSET 0.122921 0.045205 -0.019046
						CHANNELS 3 Zrotation Yrotation Xrotation
						JOINT lelbow
						{
							OFFSET 0.255332 -0.015649 -0.022946
							CHANNELS 3 Zrotation Yrotation Xrotation
							JOINT lwrist
							{
								OFFSET 0.265709 0.012698 -0.007375
								CHANNELS 3 Zrotation Yrotation Xrotation
								End Site
								{
									OFFSET 0.000000 0.000000 0.000000
								}
							}
						}
					}
				}
				JOINT rclavicle
				{
					OFFSET -0.082954 0.112472 -0.023707
					CHANNELS 3 Zrotation Yrotation Xrotation
					JOINT rshoulder
					{
						OFFSET -0.113228 0.046853 -0.008472
						CHANNELS 3 Zrotation Yrotation Xrotation
						JOINT relbow
						{
							OFFSET -0.260127 -0.014369 -0.031269
							CHANNELS 3 Zrotation Yrotation Xrotation
							JOINT rwrist
							{
								OFFSET -0.269108 0.006794 -0.006027
								CHANNELS 3 Zrotation Yrotation Xrotation
								End Site
								{
									OFFSET 0.000000 0.000000 0.000000
								}
							}
						}
					}
				}
			}
		}
	}
}
MOTION
Frames: 10
Frame Time: 0.033333
0.225121 0.434132 0.978694 79.276855 -0.837411 100.434752 -6.763188 -0.588114 -6.937383 -3.186341 -3.041154 -3.065383 8.027270 15.080221 -8.448790 0.000000 -0.000000 0.000000 -27.553012 -13.298947 1.457766 -1.970782 -10.183982 2.160202 19.062778 -21.020363 26.436421 0.000000 -0.000000 0.000000 0.562776 2.071900 -4.202604 4.657269 -4.802797 -25.814329 4.318779 3.993047 11.476468 1.621247 32.663965 9.209805 1.257783 27.839054 -16.498308 34.348245 5.063847 -19.427332 9.046432 -17.044216 -16.753150 8.044430 -8.221285 -8.145517 -17.187153 -14.665124 -26.033279 -25.350419 -11.163071 -16.306615 -2.767631 1.583231 -18.386495 -134.846056 61.677271 -135.921674 16.144645 12.933240 -23.424387 
0.225293 0.434589 0.978481 79.342235 -0.830644 100.428322 -6.861654 -0.573979 -6.871299 -3.042556 -3.448357 -3.168963 7.537571 15.450010 -8.580709 0.000000 -0.000000 0.000000 -27.582786 -13.561567 1.445328 -1.879681 -9.910562 2.208327 18.500797 -20.783785 26.513253 0.000000 -0.000000 0.000000 0.489603 2.116677 -4.201379 4.652261 -4.902595 -26.285962 4.541103 4.116355 12.015156 1.711593 32.801466 9.455327 1.093136 27.765561 -16.475012 34.322530 4.753433 -19.389478 8.950619 -16.695703 -16.920951 8.062050 -8.389349 -7.454243 -16.974745 -14.651384 -26.148438 -25.630135 -10.929749 -16.007709 -2.562412 1.199400 -18.887673 -135.324535 61.798665 -135.897366 15.728737 12.792154 -23.724154 
0.225718 0.434872 0.978247 79.410666 -0.852522 100.350825 -6.871250 -0.656199 -6.756193 -3.096972 -3.432134 -3.204660 7.530823 15.472240 -8.557938 0.000000 -0.000000 0.000000 -27.589338 -13.582350 1.545805 -1.980189 -9.802851 2.224936 18.491342 -20.764517 26.475539 0.000000 -0.000000 0.000000 0.410899 2.168172 -4.263610 4.625551 -4.957610 -25.913593 4.504270 4.209578 11.926129 1.674713 32.542108 9.425874 1.177519 27.642547 -16.529320 34.222016 5.073871 -19.464773 9.045179 -16.886221 -16.759269 7.945887 -8.645639 -7.421240 -17.807529 -15.265156 -26.674444 -25.437220 -11.163539 -16.426261 -2.647983 1.460869 -18.621623 -135.038821 61.838750 -135.587738 16.503681 12.933207 -23.474884 
0.226327 0.435145 0.977980 79.422140 -0.806075 100.404719 -6.858948 -0.574149 -6.768095 -3.103456 -3.471102 -3.214549 7.544658 15.372555 -8.589012 0.000000 -0.000000 0.000000 -27.528768 -13.624757 1.518053 -2.003292 -9.844879 2.205641 18.430428 -20.746295 26.454295 0.000000 -0.000000 0.000000 0.442557 2.106527 -4.513845 4.640327 -5.009409 -25.671897 4.467085 4.205791 11.722005 2.034839 32.682322 9.721688 1.318090 27.579687 -16.127378 34.270012 4.740380 -19.496917 8.955908 -16.746935 -16.782261 8.182048 -8.279760 -7.250600 -18.067494 -14.910727 -26.033417 -25.505211 -10.704473 -16.303477 -2.539969 1.435828 -18.646067 -134.676264 61.754628 -135.024384 16.957136 13.012319 -23.609289 
0.226659 0.435267 0.978035 79.407180 -0.800691 100.265503 -6.895736 -0.532514 -6.561160 -3.057030 -3.604732 -3.384128 7.545749 15.522258 -8.525785 0.000000 -0.000000 0.000000 -27.562866 -13.611679 1.702681 -1.987967 -9.789762 2.137911 18.499983 -20.674557 26.300388 0.000000 -0.000000 0.000000 0.406275 2.137007 -4.469640 4.591407 -4.937889 -25.527508 4.413583 4.157229 11.937465 2.046358 32.608613 9.388021 1.262728 27.379468 -16.163197 34.335399 5.233125 -19.690572 8.812475 -17.224261 -16.948856 8.051040 -8.202967 -7.543856 -17.445348 -14.906034 -26.169510 -25.296620 -11.007046 -16.622373 -2.434808 1.718700 -18.398122 -134.520487 61.646428 -135.003618 16.143983 12.889393 -23.485590 
0.226789 0.435572 0.978128 79.457875 -0.774152 100.207092 -6.855511 -0.654315 -6.453925 -3.085489 -3.601334 -3.422725 7.554435 15.539282 -8.518236 0.000000 -0.000000 0.000000 -27.513449 -13.668186 1.779889 -2.011668 -9.811670 2.060854 18.314886 -20.837231 26.544541 0.000000 -0.000000 0.000000 0.436421 2.195201 -4.226017 4.549067 -4.869231 -25.755022 4.388643 4.077427 12.111491 1.993310 32.553679 9.226308 1.328726 27.167376 -16.139166 34.373036 5.528900 -19.841978 8.495957 -17.632608 -17.178025 8.295281 -7.993238 -7.717396 -17.086058 -14.348252 -25.650085 -25.277932 -11.145139 -16.597951 -2.361623 1.610471 -18.524304 -134.860517 61.593413 -135.347868 16.051726 12.858302 -23.344974 
0.226457 0.435869 0.978132 79.322878 -0.704102 100.148617 -6.839691 -0.531451 -6.457705 -3.043578 -3.588891 -3.372974 7.577110 15.581040 -8.535399 0.000000 -0.000000 0.000000 -27.496076 -13.547243 1.809670 -1.911467 -9.929326 1.865813 18.148519 -20.870963 26.803940 0.000000 -0.000000 0.000000 0.469077 2.183531 -4.176361 4.587952 -4.741837 -25.747218 4.393115 4.119702 12.149858 2.111948 32.446151 9.512495 1.234417 27.132123 -16.267254 34.348306 5.461818 -19.641982 8.546665 -17.226821 -16.887548 8.009537 -8.497492 -7.574950 -17.663750 -14.762098 -26.357591 -25.332532 -11.113662 -16.583090 -2.329509 1.693247 -18.542632 -135.029804 61.712176 -135.582568 16.102194 12.651510 -23.163694 
0.227055 0.436140 0.977996 79.344400 -0.673438 100.183610 -6.839023 -0.499725 -6.421783 -3.043776 -3.678366 -3.449868 7.625715 15.611951 -8.549791 0.000000 -0.000000 0.000000 -27.456525 -13.524683 1.773358 -1.940079 -9.982001 1.919414 18.286282 -20.879349 26.656385 0.000000 -0.000000 0.000000 0.471359 2.149763 -4.468178 4.640190 -4.796773 -25.671480 4.405402 4.111341 12.100053 2.410746 32.744748 9.988052 1.288022 27.272078 -15.942033 34.358139 5.240484 -19.321011 8.424911 -17.165458 -16.989588 7.983437 -8.514878 -7.563575 -17.771703 -14.755451 -26.308938 -25.551967 -10.735125 -16.113070 -2.010316 1.720702 -18.709152 -134.846748 61.587864 -135.176341 16.037369 12.772082 -23.478436 
0.226821 0.436350 0.978388 79.313357 -0.673367 100.045224 -6.835335 -0.643841 -6.276726 -3.051552 -3.589658 -3.496837 7.677213 15.698924 -8.477547 0.000000 -0.000000 0.000000 -27.438125 -13.459628 1.742285 -2.004146 -10.010622 2.054409 18.196913 -21.011295 26.683168 0.000000 -0.000000 0.000000 0.315992 2.116339 -3.996832 4.614429 -4.820383 -25.689302 4.581841 4.241783 11.930461 2.407084 33.031231 9.657248 1.327301 27.247948 -15.981694 34.372510 5.256420 -19.518168 8.488088 -17.080648 -16.811483 8.021936 -8.405377 -7.375691 -18.472313 -15.075511 -26.008772 -25.398917 -10.820743 -16.346312 -1.969186 1.698205 -18.532571 -134.411173 61.414984 -134.697906 16.732544 12.721145 -23.307859 
0.226363 0.436771 0.978560 79.310277 -0.658865 100.018161 -6.850001 -0.803617 -6.284787 -3.011629 -3.683539 -3.450544 7.749815 15.950170 -8.488213 0.000000 -0.000000 0.000000 -27.450437 -13.403993 1.812580 -1.940430 -10.136099 1.943047 18.104389 -21.186689 26.835559 0.000000 -0.000000 0.000000 0.281491 2.112547 -3.611532 4.604164 -4.776485 -25.981163 4.592759 4.231947 12.096010 1.895276 32.537361 9.293947 1.415320 27.329374 -16.237645 34.253412 5.559310 -19.552626 8.529618 -17.122154 -16.877510 8.068144 -8.562575 -7.728489 -17.562015 -14.895166 -26.740403 -25.122422 -11.130868 -16.743994 -2.073722 1.937271 -18.518796 -134.665236 61.576762 -135.239471 16.376150 12.737294 -23.512618 
